#!OML:ASF H:\ManfredETheater\Project 1\Capture day 1\Session 1\subject.ASF
:FULLY-SPECIFIED
:DEGREES
154
root 1.87433 15.1683 -20.1242 -172.35 -59.5255 174.23
lowerback 21.5822 1.25979 -6.13727
upperback 2.65678 -0.218741 -1.20498
thorax -9.1612 -0.0379632 2.26626
lowerneck -1.63535 -13.7615 -13.8374
upperneck 2.15996 -18.8636 15.9641
head 3.76603 -9.30754 5.88918
rclavicle 5.1684e-014 -8.34896e-015
rhumerus -28.1416 3.87493 -79.0352
rradius 72.5228
rwrist -0.820629
rhand -27.2371 2.82171
rfingers 7.12502
rthumb -0.649082 -27.157
lclavicle 5.1684e-014 -8.34896e-015
lhumerus -24.0667 -24.9554 101.736
lradius 73.1973
lwrist 13.2383
lhand -17.2287 -17.6419
lfingers 7.12502
lthumb 9.01467 12.1454
rfemur -46.4052 -25.0349 11.2047
rtibia 97.8795
rfoot -2.50252 11.2272
rtoes -26.8315
lfemur -38.1812 2.13453 -14.2113
ltibia 84.0056
lfoot -12.1828 9.17843
ltoes 69.2069
155
root 1.79923 15.177 -20.4117 -171.169 -59.8811 173.439
lowerback 21.6337 1.21594 -6.30951
upperback 2.53333 -0.299095 -1.06244
thorax -9.31773 -0.0544901 2.54374
lowerneck -2.05281 -13.9645 -14.1069
upperneck 1.64481 -19.0233 16.0655
head 3.74097 -9.37704 5.91825
rclavicle -8.05078e-015 2.56432e-014
rhumerus -28.654 3.65283 -79.3678
rradius 74.2703
rwrist -2.37621
rhand -27.6919 2.52137
rfingers 7.12502
rthumb -1.08838 -27.4556
lclavicle -8.05078e-015 2.56432e-014
lhumerus -21.7933 -29.9124 101.769
lradius 76.1892
lwrist 12.1554
lhand -14.9318 -18.0363
lfingers 7.12502
lthumb 11.2305 11.6431
rfemur -47.7836 -25.9993 10.9529
rtibia 98.2962
rfoot -3.11545 10.2816
rtoes -27.5463
lfemur -37.6292 2.36727 -13.6071
ltibia 83.5082
lfoot -12.7069 8.57948
ltoes 69.2678
156
root 1.72076 15.1879 -20.6998 -169.979 -60.1939 172.633
lowerback 21.6779 1.14688 -6.4731
upperback 2.41834 -0.406555 -0.888991
thorax -9.45734 -0.083514 2.85912
lowerneck -2.52128 -14.1081 -14.3325
upperneck 1.0955 -19.0848 16.0697
head 3.68467 -9.39796 5.92244
rclavicle -3.42407e-014 -2.94201e-014
rhumerus -29.1425 3.14866 -79.6425
rradius 76.3032
rwrist -4.0926
rhand -28.1353 2.22393
rfingers 7.12502
rthumb -1.51663 -27.7504
lclavicle -3.42407e-014 -2.94201e-014
lhumerus -19.1468 -33.9952 101.171
lradius 79.2067
lwrist 11.0429
lhand -13.3519 -17.9511
lfingers 7.12502
lthumb 12.754 11.6394
rfemur -49.1818 -26.9261 10.7667
rtibia 98.5199
rfoot -4.30075 8.27731
rtoes -28.5877
lfemur -37.0126 2.4528 -13.0283
ltibia 82.9012
lfoot -13.0905 8.05807
ltoes 69.3184
157
root 1.63886 15.2013 -20.9885 -168.818 -60.468 171.851
lowerback 21.7241 1.03387 -6.58823
upperback 2.30092 -0.55893 -0.703269
thorax -9.59531 -0.134541 3.17459
lowerneck -3.02855 -14.1815 -14.4877
upperneck 0.548668 -19.0438 15.9823
head 3.60293 -9.36822 5.90131
rclavicle -1.16786e-014 -1.5704e-014
rhumerus -29.5884 2.47936 -79.9001
rradius 78.4548
rwrist -5.45528
rhand -28.5434 1.92744
rfingers 7.12502
rthumb -1.91078 -28.0438
lclavicle -1.16786e-014 -1.5704e-014
lhumerus -16.1751 -37.165 100
lradius 82.1569
lwrist 9.68736
lhand -12.6468 -17.5535
lfingers 7.12502
lthumb 13.4336 11.9933
rfemur -50.612 -27.7971 10.6516
rtibia 98.5407
rfoot -5.66753 5.49733
rtoes -29.432
lfemur -36.3332 2.39008 -12.4564
ltibia 82.1867
lfoot -13.3627 7.59591
ltoes 69.3518
158
root 1.55258 15.2174 -21.2781 -167.704 -60.6789 171.118
lowerback 21.7717 0.869873 -6.61225
upperback 2.15838 -0.758973 -0.541731
thorax -9.75702 -0.209722 3.42645
lowerneck -3.55458 -14.1795 -14.5447
upperneck 0.0518131 -18.9063 15.8203
head 3.50689 -9.29089 5.85592
rclavicle -1.86795e-014 -7.28049e-015
rhumerus -30.028 1.76233 -80.1953
rradius 80.6163
rwrist -6.18256
rhand -28.8997 1.59028
rfingers 7.12502
rthumb -2.25481 -28.3775
lclavicle -1.86795e-014 -7.28049e-015
lhumerus -13.0291 -39.4336 98.3603
lradius 84.9674
lwrist 7.99758
lhand -12.779 -17.0227
lfingers 7.12502
lthumb 13.3063 12.5325
rfemur -52.0852 -28.5633 10.6002
rtibia 98.3453
rfoot -6.94567 2.3062
rtoes -29.5463
lfemur -35.5839 2.20423 -11.8813
ltibia 81.3568
lfoot -13.5962 7.17189
ltoes 69.3702
159
root 1.46159 15.2361 -21.5688 -166.668 -60.8186 170.466
lowerback 21.8105 0.660208 -6.53432
upperback 1.99486 -0.995936 -0.403453
thorax -9.93421 -0.305146 3.60624
lowerneck -4.10743 -14.1134 -14.5015
upperneck -0.369698 -18.6914 15.5881
head 3.40912 -9.17466 5.78343
rclavicle 5.54361e-014 -1.08835e-014
rhumerus -30.4768 1.10757 -80.5189
rradius 82.7395
rwrist -6.25234
rhand -29.1783 1.18519
rfingers 7.12502
rthumb -2.52392 -28.7796
lclavicle 5.54361e-014 -1.08835e-014
lhumerus -9.856 -40.8269 96.4222
lradius 87.5938
lwrist 6.0655
lhand -13.506 -16.4647
lfingers 7.12502
lthumb 12.6054 13.135
rfemur -53.5821 -29.1921 10.5951
rtibia 97.9253
rfoot -8.07327 -0.917421
rtoes -28.8065
lfemur -34.7543 1.91662 -11.2963
ltibia 80.4078
lfoot -13.7741 6.79288
ltoes 69.3704
160
root 1.36553 15.2571 -21.861 -165.695 -60.8506 169.867
lowerback 21.8408 0.424117 -6.38293
upperback 1.80805 -1.2531 -0.301118
thorax -10.1326 -0.412335 3.71118
lowerneck -4.67893 -13.993 -14.3501
upperneck -0.702366 -18.4171 15.2944
head 3.31612 -9.02859 5.68278
rclavicle -2.21148e-014 3.97569e-015
rhumerus -30.9685 0.611104 -80.8647
rradius 84.8177
rwrist -5.86964
rhand -29.3804 0.754466
rfingers 7.12502
rthumb -2.71908 -29.2079
lclavicle -2.21148e-014 3.97569e-015
lhumerus -6.88178 -41.4389 94.3628
lradius 90.0771
lwrist 4.20572
lhand -14.5592 -15.9334
lfingers 7.12502
lthumb 11.5898 13.7261
rfemur -55.0803 -29.6443 10.5785
rtibia 97.2845
rfoot -9.10757 -3.89953
rtoes -27.5233
lfemur -33.815 1.5582 -10.7288
ltibia 79.3264
lfoot -13.9177 6.45081
ltoes 69.3619
161
root 1.2641 15.2793 -22.1542 -164.737 -60.746 169.281
lowerback 21.8349 0.181352 -6.19159
upperback 1.59927 -1.51071 -0.236707
thorax -10.3386 -0.521522 3.75157
lowerneck -5.26846 -13.831 -14.1413
upperneck -0.941937 -18.1011 14.9815
head 3.24179 -8.86081 5.57031
rclavicle -3.68746e-014 -3.61788e-014
rhumerus -31.5196 0.336802 -81.2064
rradius 86.8695
rwrist -5.33764
rhand -29.5084 0.382491
rfingers 7.12502
rthumb -2.84274 -29.5783
lclavicle -3.68746e-014 -3.61788e-014
lhumerus -4.2687 -41.3639 92.3565
lradius 92.4653
lwrist 2.73711
lhand -15.5666 -15.4749
lfingers 7.12502
lthumb 10.6182 14.2369
rfemur -56.5898 -29.9097 10.4997
rtibia 96.4355
rfoot -10.1063 -6.47063
rtoes -26.0312
lfemur -32.7716 1.16082 -10.2232
ltibia 78.1102
lfoot -13.9997 6.15865
ltoes 69.3479
162
root 1.1574 15.302 -22.449 -163.815 -60.4792 168.722
lowerback 21.8018 -0.0478093 -5.98983
upperback 1.37271 -1.74939 -0.199779
thorax -10.5542 -0.622501 3.75003
lowerneck -5.88511 -13.6397 -13.8611
upperneck -1.09772 -17.7574 14.6266
head 3.18382 -8.67856 5.43511
rclavicle 2.01766e-014 -3.57812e-015
rhumerus -32.1462 0.322908 -81.5219
rradius 88.9184
rwrist -4.84483
rhand -29.5557 0.140057
rfingers 7.12502
rthumb -2.88833 -29.8201
lclavicle 2.01766e-014 -3.57812e-015
lhumerus -2.15333 -40.7384 90.526
lradius 94.8493
lwrist 2.01221
lhand -16.3195 -15.0868
lfingers 7.12502
lthumb 9.89188 14.6608
rfemur -58.0788 -29.9701 10.3446
rtibia 95.3851
rfoot -11.09 -8.57544
rtoes -24.651
lfemur -31.5964 0.765363 -9.78594
ltibia 76.7523
lfoot -14.0192 5.92159
ltoes 69.3278
